<?xml version="1.0" encoding="UTF-8" standalone="no"?>
<!-- Created with Inkscape (http://www.inkscape.org/) -->

<svg
   width="128"
   height="128"
   viewBox="0 0 128 128"
   version="1.1"
   id="svg5"
   inkscape:version="1.1 (c68e22c387, 2021-05-23)"
   sodipodi:docname="favicon2.svg"
   xmlns:inkscape="http://www.inkscape.org/namespaces/inkscape"
   xmlns:sodipodi="http://sodipodi.sourceforge.net/DTD/sodipodi-0.dtd"
   xmlns="http://www.w3.org/2000/svg"
   xmlns:svg="http://www.w3.org/2000/svg">
  <sodipodi:namedview
     id="namedview7"
     pagecolor="#505050"
     bordercolor="#eeeeee"
     borderopacity="1"
     inkscape:pageshadow="0"
     inkscape:pageopacity="0"
     inkscape:pagecheckerboard="0"
     inkscape:document-units="px"
     showgrid="false"
     units="px"
     width="128px"
     inkscape:zoom="5.9295174"
     inkscape:cx="69.988833"
     inkscape:cy="68.723974"
     inkscape:window-width="1920"
     inkscape:window-height="1017"
     inkscape:window-x="-8"
     inkscape:window-y="-8"
     inkscape:window-maximized="1"
     inkscape:current-layer="layer1" />
  <defs
     id="defs2" />
  <g
     inkscape:label="Katman 1"
     inkscape:groupmode="layer"
     id="layer1">
    <path
       style="fill:#4CC734;fill-rule:nonzero;stroke-width:3.47952;stroke-linecap:round;stroke-linejoin:bevel;stroke-miterlimit:999"
       id="path2165"
       d="m 35.472611,21.46577 c -0.302935,0.165508 -0.627019,0.297123 -0.908801,0.496522 -1.288909,0.912085 -2.658628,2.271717 -3.69373,3.37473 -2.380737,2.536932 -4.033899,4.605994 -6.160908,7.43764 -1.105296,1.471461 -2.150765,2.986927 -3.226148,4.480391 -3.250133,5.188603 -6.676278,10.271024 -9.750401,15.565807 -0.939711,1.618534 -1.627429,3.37762 -2.2688534,5.135825 -1.4282539,3.914977 -2.373144,7.586019 -2.1789755,11.80837 0.096021,2.088093 0.253283,4.255104 1.0712337,6.178722 0.8638452,2.031549 2.5653442,3.593424 3.8480152,5.390135 2.87575,0.87462 5.652717,2.19136 8.627249,2.623859 3.747555,0.544898 7.594545,0.70867 11.357385,0.281925 10.514602,-1.192466 19.807689,-5.116753 29.548762,-8.964101 9.512815,-3.757193 17.435385,-7.333526 26.732985,-11.418906 9.042896,-3.94068 18.026856,-8.012765 27.112976,-11.853368 0,0 5.68206,-11.861201 5.68206,-11.861201 v 0 c -1.66271,1.30616 -3.30296,2.641436 -4.98813,3.918482 -8.60757,6.522915 -17.568697,12.571124 -26.916812,17.988497 -4.368576,2.299878 -8.636173,4.802741 -13.105728,6.899636 -9.449293,4.433141 -18.143313,7.967339 -28.544196,9.434527 -7.594297,1.071281 -15.011797,0.748283 -22.136322,-2.240168 -2.484519,-1.042157 -4.515527,-2.940362 -6.773291,-4.410543 -1.067758,-1.812029 -2.495049,-3.455687 -3.20327,-5.436085 -0.672213,-1.879704 -0.856337,-3.930467 -0.860262,-5.926749 -0.008,-4.065878 1.263214,-8.227044 2.802124,-11.930671 0.764375,-1.839586 4.26782,-6.524005 2.655767,-5.353693 -2.008798,1.458341 -2.643119,4.202622 -3.964678,6.303933 2.360523,-3.202288 2.919465,-4.19804 5.555381,-6.949668 1.373785,-1.434091 2.938161,-2.83256 4.777866,-3.643451 0,0 8.908702,-17.330397 8.908702,-17.330397 z" />
    <path
       style="fill:#4CC734;fill-rule:nonzero;stroke-width:3.47952;stroke-linecap:round;stroke-linejoin:bevel;stroke-miterlimit:999"
       id="path2167"
       d="m 58.687775,93.495435 c 0.03185,-1.085478 0.02838,-1.381125 0.157325,-2.682122 0.102071,-1.029893 0.241948,-2.055708 0.35485,-3.08447 0.17151,-1.562781 0.30803,-3.12949 0.498379,-4.69009 0.419518,-3.439446 1.443338,-10.561586 1.897334,-13.778388 0.386356,-2.706874 0.781631,-5.412492 1.159069,-8.120624 0.387176,-2.778003 0.724856,-5.562956 1.134761,-8.337697 0.392508,-2.656989 0.849295,-5.304083 1.272317,-7.956384 0.37805,-2.370338 0.741698,-4.742999 1.130895,-7.111532 0.842287,-5.125897 1.052951,-6.169619 1.935926,-11.002943 0.89568,-4.691198 0.473459,-2.512472 1.261898,-6.537096 0,0 -10.418335,13.201159 -10.418335,13.201159 v 0 c 0.225726,2.760465 0.123706,1.244305 0.277773,4.550297 0.01236,1.239216 0.05313,2.478475 0.03701,3.717648 -0.05375,4.131017 -0.235983,6.940014 -0.576966,11.160394 -0.193085,2.38984 -0.373264,4.781932 -0.653231,7.163156 -0.776018,6.600281 -1.50015,10.258996 -2.633548,16.821426 -0.594466,2.779465 -1.135639,5.570864 -1.783397,8.338395 -0.599926,2.563174 -1.251118,5.115023 -1.958908,7.650531 -0.787363,2.820551 -2.422637,7.865895 -3.425111,10.911145 -0.330064,1.00265 -0.68804,1.99612 -1.007079,3.00233 -0.181099,0.57116 -0.328647,1.15243 -0.492969,1.72864 0,0 11.832003,-14.943775 11.832003,-14.943775 z" />
    <path
       style="fill:#4CC734;fill-rule:nonzero;stroke-width:3.47952;stroke-linecap:round;stroke-linejoin:bevel;stroke-miterlimit:999"
       id="path2171"
       d="m 50.808486,49.341035 c 0.260034,0.216445 0.532369,0.418915 0.780103,0.649336 1.067905,0.993279 5.202371,5.128152 5.415895,5.39308 1.422341,1.764777 2.606564,3.710026 3.843453,5.609394 1.418077,2.1776 2.746109,4.412528 4.119528,6.618565 1.479896,2.377062 2.960277,4.753823 4.440415,7.130735 5.133037,8.736397 9.742633,17.76379 14.130065,26.892555 0,0 8.681343,-12.77554 8.681343,-12.77554 v 0 C 89.975071,86.839646 88.911356,85.963773 86.751846,83.611897 82.152951,78.603339 78.104416,73.110317 74.586752,67.293643 71.456406,61.390715 69.65139,58.286257 67.028308,52.184783 66.022792,49.84588 65.024813,47.494535 64.263169,45.065252 c -0.715768,-2.282957 -1.667977,-7.062044 -2.101457,-9.897586 -0.0805,-0.526586 -0.113211,-1.059376 -0.16982,-1.589064 0,0 -11.183406,15.762433 -11.183406,15.762433 z" />
    <path
       style="fill:#4CC734;fill-rule:nonzero;stroke-width:3.47952;stroke-linecap:round;stroke-linejoin:bevel;stroke-miterlimit:999"
       id="path2173"
       d="m 32.862976,58.546071 c 0.29368,0.804402 0.76485,1.564789 0.881043,2.413206 0.515514,3.764166 0.100703,10.62731 -0.171842,13.999015 -0.635991,7.867954 -1.322101,11.557075 -2.488994,19.386892 0,0 4.765266,-5.975241 4.765266,-5.975241 v 0 c 0.380493,-3.126892 0.706208,-6.260937 1.141477,-9.380675 1.028788,-7.373696 2.054383,-13.314658 3.619013,-20.593271 0.623396,-2.900021 1.288722,-5.792721 2.056057,-8.658019 0.555233,-2.073284 1.272943,-4.099607 1.909415,-6.14941 0,0 -11.711435,14.957503 -11.711435,14.957503 z" />
    <path
       style="fill:#4CC734;fill-rule:nonzero;stroke-width:3.47952;stroke-linecap:round;stroke-linejoin:bevel;stroke-miterlimit:999"
       id="path2175"
       d="m 28.203607,64.146381 c 2.376529,0.670252 4.809537,1.377394 7.064787,2.374894 2.008459,0.888345 3.952564,1.917827 5.892113,2.94798 2.618402,1.39071 5.276222,2.723203 7.778741,4.313014 2.748532,1.7461 5.29924,3.785659 7.948861,5.67849 9.375238,7.98378 4.990168,3.941687 13.211912,12.064471 0,0 5.082377,-7.904596 5.082377,-7.904596 v 0 C 65.760576,77.259415 70.534596,80.713354 60.912645,73.186899 58.462211,70.980295 55.905956,68.88582 53.561342,66.56709 c -2.177887,-2.153844 -4.167776,-4.490542 -6.200237,-6.782122 -1.513156,-1.706069 -3.041983,-3.403496 -4.434992,-5.208999 -1.649449,-2.137876 -2.937334,-4.479775 -4.304838,-6.790246 0,0 -10.417668,16.360658 -10.417668,16.360658 z" />
    <path
       style="fill:#4CC734;fill-rule:nonzero;stroke-width:3.47952;stroke-linecap:round;stroke-linejoin:bevel;stroke-miterlimit:999"
       id="path2183"
       d="m 75.684526,79.501223 c -0.01092,-0.230276 -0.05682,-0.461533 -0.03289,-0.690824 0.0617,-0.591377 0.20087,-1.17218 0.288615,-1.760256 0.150279,-1.007179 0.268683,-2.019023 0.425415,-3.025216 0.764157,-4.90577 1.031247,-6.514073 2.371084,-11.689346 0.64747,-2.500924 1.414034,-4.969493 2.121051,-7.45424 2.895942,-9.119308 1.450024,-4.729347 4.319321,-13.175943 0,0 -7.961823,9.689338 -7.961823,9.689338 v 0 c -1.590812,7.050786 -0.697227,3.302963 -2.719485,11.234165 -0.711359,2.489626 -1.367842,4.995591 -2.134079,7.468879 -2.584451,8.342178 -5.818766,16.448663 -8.841961,24.634878 0,0 12.164759,-15.231435 12.164759,-15.231435 z" />
  </g>
</svg>
